<svg xmlns="http://www.w3.org/2000/svg" width="77" height="72" viewBox="0 0 77 72"><rect width="100%" height="100%" fill="#DDDDDD"/><path fill="#999999" d="M15.445 30.995h6.99v.75q0 .33-.07.54-.07.21-.14.35l-3.83 7.89q-.12.25-.34.42-.22.17-.58.17h-1.25l3.91-7.74q.13-.23.26-.43.13-.2.29-.38h-4.84q-.16 0-.28-.12-.12-.12-.12-.28v-1.17Zm8.12 0h6.99v.75q0 .33-.07.54-.07.21-.14.35l-3.83 7.89q-.12.25-.34.42-.22.17-.58.17h-1.25l3.91-7.74q.13-.23.26-.43.13-.2.29-.38h-4.84q-.16 0-.28-.12-.12-.12-.12-.28v-1.17Zm18.23 7.8-.91.91-2.38-2.38-2.39 2.39-.92-.9 2.4-2.4-2.29-2.29.91-.91 2.29 2.29 2.26-2.27.93.91-2.28 2.27 2.38 2.38Zm4.81-7.8h7v.75q0 .33-.07.54-.07.21-.14.35l-3.84 7.89q-.12.25-.34.42-.21.17-.58.17h-1.25l3.91-7.74q.14-.23.27-.43.12-.2.29-.38h-4.85q-.16 0-.28-.12-.12-.12-.12-.28v-1.17Zm11.74 8.51h2.6q.28 0 .44.16.17.16.17.41v1.04h-6.95v-.57q0-.18.08-.37.07-.19.23-.35l3.07-3.08q.39-.39.69-.75.31-.35.51-.7t.31-.71q.11-.37.11-.76 0-.37-.1-.64-.11-.28-.3-.47-.19-.19-.46-.28-.27-.1-.61-.1-.31 0-.57.09-.26.09-.46.24-.21.16-.35.37-.14.21-.21.46-.12.33-.31.43-.18.11-.54.05l-.91-.16q.1-.73.41-1.28.3-.55.75-.92.45-.36 1.03-.55.59-.18 1.26-.18.7 0 1.28.2.58.21 1 .59.41.38.64.91.23.53.23 1.18 0 .56-.16 1.04-.17.47-.45.91-.27.43-.64.84-.37.4-.78.82l-2.28 2.33q.33-.1.65-.15.33-.05.62-.05Z"/></svg>